<svg xmlns="http://www.w3.org/2000/svg" version="1.1" xmlns:xlink="http://www.w3.org/1999/xlink" viewBox="0 0 700 700" style="overflow: hidden; display: block;" width="700" height="700"><defs></defs><g id="two-0" transform="matrix(1 0 0 1 0 0)" opacity="1"><path transform="matrix(1 0 0 1 350 350)" id="two-6" d="M 167.21256 49.098037 C 156.089126 75.137224 200.692499 100.142908 199.866501 128.446401 C 199.164523 152.500244 186.304802 178.261245 168.230025 194.147799 C 150.184789 210.008389 123.122281 218.202807 99.125029 217.053538 C 72.994191 215.802089 52.452664 181.005774 26.603915 185.034297 C 0.042201 189.173935 -8.7708 247.257659 -34.370739 239.053733 C -69.520476 227.789417 -36.771183 159.208101 -59.385789 130.036737 C -67.762167 119.231755 -83.819462 116.837764 -96.181898 110.999826 C -111.088356 103.960521 -126.077665 95.212485 -142.096457 91.319847 C -185.712035 80.721066 -258.016919 121.867195 -277.760486 81.557837 C -291.989342 52.50756 -248.065719 20.90762 -223.382722 0 C -199.025779 -20.631438 -159.649131 -19.201443 -135.171928 -39.69006 C -125.124264 -48.100447 -113.155816 -59.369533 -112.760263 -72.466621 C -110.595067 -144.158038 -279.139258 -212.625652 -224.387335 -258.956788 C -166.903279 -307.599857 -119.553526 -80.526869 -50.681934 -110.977954 C 8.767261 -137.262993 -107.094044 -291.19675 -44.261508 -307.84555 C -0.532879 -319.432369 -9.146938 -217.594747 27.4651 -191.023972 C 42.261037 -180.285987 63.159804 -176.142118 81.336284 -178.101621 C 127.099636 -183.035108 164.383186 -256.385684 206.918448 -238.79662 C 234.831573 -227.254062 232.936974 -182.307606 237.130675 -152.394632 C 240.994788 -124.832547 223.14313 -94.493834 232.25834 -68.197203 C 242.106883 -39.784964 299.736396 -29.234769 292.695272 -0.000001 C 282.283412 43.230071 184.680606 8.206555 167.21256 49.098037 Z " fill="hsl(335, 67%, 53%)" stroke="undefined" stroke-width="1" stroke-opacity="1" fill-opacity="1" visibility="visible" stroke-linecap="butt" stroke-linejoin="miter" stroke-miterlimit="4"></path></g></svg>