<svg xmlns="http://www.w3.org/2000/svg" version="1.1" xmlns:xlink="http://www.w3.org/1999/xlink" viewBox="0 0 700 700" style="overflow: hidden; display: block;" width="700" height="700"><defs></defs><g id="two-0" transform="matrix(1 0 0 1 0 0)" opacity="1"><path transform="matrix(1 0 0 1 350 350)" id="two-10" d="M 287.677229 84.469656 C 241.100856 126.015081 137.528325 14.436203 99.653247 64.043253 C 79.564858 90.354108 137.40713 124.303305 136.37946 157.390287 C 135.589918 182.810479 128.867541 223.122719 103.766977 227.217985 C 64.185875 233.675814 53.379519 161.405562 20.008569 139.162657 C 8.856775 131.729597 -5.015473 121.039937 -17.922002 124.650258 C -67.072834 138.399135 -64.93862 264.755982 -112.729433 246.843026 C -151.429064 232.337627 -80.530629 154.706162 -105.549225 121.810298 C -118.393227 104.922278 -149.175621 117.215214 -168.390954 108.218294 C -189.134829 98.505688 -204.188271 78.424741 -223.104933 65.509518 C -258.104905 41.613526 -329.796403 42.211773 -333.562386 0 C -336.839765 -36.735172 -266.420541 -40.594342 -249.04614 -73.126545 C -236.435175 -96.739589 -258.898257 -135.665189 -239.050448 -153.628395 C -213.651547 -176.615602 -161.647181 -134.252057 -135.27224 -156.112487 C -110.478597 -176.662285 -135.306914 -226.650255 -114.874979 -251.541116 C -97.977849 -272.125759 -64.760258 -271.931101 -40.75621 -283.465666 C -11.013074 -297.75801 18.323006 -345.846941 47.512248 -330.45495 C 100.959603 -302.271238 13.14839 -174.232949 67.810116 -148.483445 C 117.914641 -124.880701 160.327645 -268.090017 208.267793 -240.353847 C 239.910521 -222.046685 212.198244 -164.836392 201.907097 -129.757813 C 192.901339 -99.060634 142.868023 -75.184764 154.304474 -45.307882 C 170.976955 -1.752256 261.099507 -37.976315 288.170962 -0.000001 C 304.351675 22.698589 308.479598 65.914255 287.677229 84.469656 Z " fill="hsl(305, 77%, 40%)" stroke="undefined" stroke-width="1" stroke-opacity="1" fill-opacity="1" visibility="visible" stroke-linecap="butt" stroke-linejoin="miter" stroke-miterlimit="4"></path></g></svg>