<svg xmlns="http://www.w3.org/2000/svg" version="1.1" xmlns:xlink="http://www.w3.org/1999/xlink" viewBox="0 0 700 700" style="overflow: hidden; display: block;" width="700" height="700"><defs></defs><g id="two-0" transform="matrix(1 0 0 1 0 0)" opacity="1"><path transform="matrix(1 0 0 1 350 350)" id="two-12" d="M 213.986447 62.83209 C 214.5976 84.391441 171.321679 85.378434 164.880229 105.962089 C 152.874851 144.325283 227.550623 201.660479 194.25251 224.179347 C 148.060606 255.418036 110.549108 108.995439 57.222828 125.300516 C 31.444278 133.182582 54.900737 194.36632 29.039089 201.971304 C 8.257675 208.082373 -1.860225 159.736639 -23.353657 162.428246 C -85.342163 170.191021 -84.933429 336.363528 -141.669227 310.212335 C -199.090098 283.745372 -72.832553 176.012385 -105.72795 122.016558 C -116.04226 105.086236 -144.416318 110.898941 -163.333029 104.967763 C -193.593709 95.479778 -229.757869 94.511013 -254.557677 74.744877 C -277.112357 56.768171 -291.017798 27.454156 -299.857755 0 C -309.000473 -28.394441 -324.215658 -65.817862 -306.914713 -90.118291 C -283.464371 -123.055993 -211.20196 -87.689123 -188.360278 -121.051801 C -167.506386 -151.511103 -231.541838 -211.17816 -201.181354 -232.17566 C -163.202361 -258.442168 -122.372273 -175.412448 -76.775391 -168.114656 C -59.806661 -165.398807 -42.026388 -180.463592 -25.350161 -176.31424 C -7.006946 -171.75011 1.604339 -139.769899 20.393309 -141.83858 C 68.777999 -147.165774 72.568737 -232.244655 116.053099 -254.120842 C 148.724646 -270.557299 197.507032 -283.668018 226.631432 -261.546616 C 254.07774 -240.699807 240.375154 -192.928466 247.848806 -159.282757 C 253.796744 -132.505676 277.772254 -103.629587 267.007443 -78.40046 C 246.978117 -31.458399 137.072021 -50.924786 133.696057 -0.000001 C 131.470542 33.570809 213.033093 29.201103 213.986447 62.83209 Z " fill="hsl(205, 69%, 50%)" stroke="undefined" stroke-width="1" stroke-opacity="1" fill-opacity="1" visibility="visible" stroke-linecap="butt" stroke-linejoin="miter" stroke-miterlimit="4"></path></g></svg>