<svg xmlns="http://www.w3.org/2000/svg" version="1.1" xmlns:xlink="http://www.w3.org/1999/xlink" viewBox="0 0 700 700" style="overflow: hidden; display: block;" width="700" height="700"><defs></defs><g id="two-0" transform="matrix(1 0 0 1 0 0)" opacity="1"><path transform="matrix(1 0 0 1 350 350)" id="two-16" d="M 182.296582 53.527106 C 155.792772 61.531621 110.882238 38.618306 99.009548 63.629573 C 67.673285 129.643218 267.331653 197.523212 217.324874 250.806274 C 182.069317 288.371661 123.464236 204.110239 80.341303 175.922916 C 58.729807 161.796552 43.419988 121.657896 18.418271 128.101889 C -25.922703 139.530422 0.157905 228.296148 -36.72555 255.431808 C -59.188437 271.95806 -100.212907 283.275662 -120.75367 264.413654 C -151.924983 235.789908 -87.604497 165.627798 -118.018715 136.200856 C -142.386232 112.624333 -192.067572 160.076431 -220.613127 141.779447 C -241.224673 128.567963 -240.268256 96.052756 -247.887501 72.786337 C -255.615526 49.187746 -265.469817 24.786031 -266.975984 0 C -268.498727 -25.058803 -276.009912 -59.30345 -256.729861 -75.382689 C -218.662138 -107.130532 -136.858815 -29.236319 -106.676216 -68.556641 C -88.545816 -92.175986 -128.43481 -125.306428 -133.93527 -154.569541 C -143.809427 -207.101256 -192.673256 -293.240902 -144.406199 -316.205468 C -98.032579 -338.269171 -81.250438 -204.361785 -30.255899 -210.434396 C 15.471024 -215.87972 2.305615 -337.88695 46.967312 -326.664833 C 106.598363 -311.681375 36.018154 -195.676728 64.47092 -141.171624 C 71.148484 -128.37985 85.053497 -119.6012 97.839779 -112.913126 C 114.482963 -104.207636 134.257077 -101.040462 152.825841 -98.215205 C 204.903787 -90.291492 280.895767 -133.982704 312.321238 -91.70579 C 330.961836 -66.62846 308.355598 -24.331044 288.750886 -0.000001 C 264.080188 30.618342 219.938162 42.15883 182.296582 53.527106 Z " fill="hsl(205, 69%, 50%)" stroke="undefined" stroke-width="1" stroke-opacity="1" fill-opacity="1" visibility="visible" stroke-linecap="butt" stroke-linejoin="miter" stroke-miterlimit="4"></path></g></svg>