<svg xmlns="http://www.w3.org/2000/svg" version="1.1" xmlns:xlink="http://www.w3.org/1999/xlink" viewBox="0 0 700 700" style="overflow: hidden; display: block;" width="700" height="700"><defs></defs><g id="two-0" transform="matrix(1 0 0 1 0 0)" opacity="1"><path transform="matrix(1 0 0 1 350 350)" id="two-4" d="M 203.965374 59.889637 C 192.309482 78.041664 164.586878 80.643869 149.545238 96.106889 C 137.492899 108.496864 136.612032 131.686146 121.74115 140.496776 C 105.792678 149.945851 79.34363 131.272833 65.663072 143.782072 C 27.825519 178.380001 92.953195 286.961152 42.767123 297.451875 C 0.458521 306.295918 16.072082 191.884252 -26.812113 186.482337 C -73.401526 180.613694 -87.436643 304.490809 -129.939331 284.527445 C -173.639042 264.001843 -85.775312 172.549824 -120.061243 138.55806 C -145.542463 113.295464 -199.862245 168.481723 -228.478046 146.833923 C -248.690587 131.543173 -251.969756 95.504633 -243.684811 71.552316 C -231.780358 37.135768 -178.921871 30.912244 -159.669653 0 C -151.81652 -12.609353 -144.759646 -29.277256 -148.589734 -43.629883 C -164.918928 -104.820857 -313.848464 -126.50296 -282.22422 -181.374493 C -255.102125 -228.434304 -175.49004 -153.581151 -122.550438 -141.430745 C -101.494708 -136.598149 -79.729598 -131.880692 -58.471508 -128.034742 C -45.014314 -125.600106 -29.998538 -116.198205 -17.507162 -121.764984 C 7.141631 -132.749714 4.087899 -176.448477 27.338857 -190.145931 C 44.900726 -200.491866 69.216416 -189.572993 88.933905 -194.738091 C 136.278605 -207.14028 186.408814 -289.863144 223.24452 -257.637912 C 260.497371 -225.047746 166.023432 -162.517835 178.252527 -114.555944 C 183.855867 -92.579923 221.102236 -88.556479 227.742309 -66.871176 C 234.348009 -45.29813 217.635478 -22.181408 213.510338 -0.000001 C 209.8512 19.675652 214.778851 43.049527 203.965374 59.889637 Z " fill="hsl(305, 77%, 40%)" stroke="undefined" stroke-width="1" stroke-opacity="1" fill-opacity="1" visibility="visible" stroke-linecap="butt" stroke-linejoin="miter" stroke-miterlimit="4"></path></g></svg>