<svg xmlns="http://www.w3.org/2000/svg" version="1.1" xmlns:xlink="http://www.w3.org/1999/xlink" viewBox="0 0 700 700" style="overflow: hidden; display: block;" width="700" height="700"><defs></defs><g id="two-0" transform="matrix(1 0 0 1 0 0)" opacity="1"><path transform="matrix(1 0 0 1 350 350)" id="two-8" d="M 250.144316 73.448998 C 225.521942 101.339638 155.927269 56.136454 138.481685 88.996775 C 110.320263 142.041337 263.711606 212.634129 218.675492 252.364971 C 174.921315 290.964889 127.287355 170.306138 70.910406 155.27213 C 55.523646 151.168952 38.661765 157.799459 22.741656 158.171692 C 7.763715 158.521896 -9.114456 151.151359 -22.654391 157.564744 C -77.949048 183.755854 -79.425936 319.64043 -138.182379 302.577202 C -178.747304 290.796902 -119.72001 202.664789 -151.909435 175.312832 C -185.188648 147.034862 -266.233002 222.4185 -284.047727 182.546389 C -310.753931 122.773775 -136.43499 107.276759 -143.807868 42.225799 C -146.762328 16.158576 -194.919326 20.599746 -211.163692 0 C -225.997462 -18.810946 -227.720907 -45.772655 -234.318796 -68.802207 C -243.337101 -100.280079 -268.623072 -134.623984 -257.26885 -165.336651 C -247.374258 -192.101084 -215.87657 -215.282792 -187.357168 -216.221698 C -138.775609 -217.821085 -111.223703 -142.038184 -62.822379 -137.561822 C -48.422684 -136.230076 -33.861056 -145.344715 -22.10904 -153.771749 C -0.107477 -169.548439 8.464897 -201.356703 31.088782 -216.227229 C 53.785238 -231.145456 85.141828 -251.814326 109.772609 -240.368487 C 134.559999 -228.849872 119.924285 -179.930862 142.262207 -164.179341 C 170.209303 -144.472528 214.227145 -171.27993 245.697458 -157.900169 C 274.863723 -145.499987 312.995119 -124.412897 316.400393 -92.903538 C 320.425279 -55.660836 262.712286 -35.638679 251.175252 -0.000001 C 243.709491 23.062242 266.187149 55.276709 250.144316 73.448998 Z " fill="hsl(335, 67%, 53%)" stroke="undefined" stroke-width="1" stroke-opacity="1" fill-opacity="1" visibility="visible" stroke-linecap="butt" stroke-linejoin="miter" stroke-miterlimit="4"></path></g></svg>